# xmcd
# Copyright (C) 1995-1998 Ti Kan
#
# Track frame offsets:
#       150
#       3217
#       11776
#
# Disc length: 3581 seconds
#
# Revision: 0
# Processed by: cddbd v1.5.2PL0 Copyright (c) Steve Scherf et al.
# Submitted via: CD-Import v1.0
#
DISCID=150dfb03
DTITLE=Andrew - 
DYEAR=1900
DGENRE=
TTITLE0=Anmodi Goetaknal
TTITLE1=Abmodi Goetakanal
TTITLE2=Die Tote Im Goetakanal
EXTD=
EXTT0=
EXTT1=
EXTT2=
PLAYORDER=
